<?xml version="1.0" encoding="utf-8"?>
<!-- Generator: Adobe Illustrator 19.1.0, SVG Export Plug-In . SVG Version: 6.00 Build 0)  -->
<svg version="1.1" id="Ebene_1" xmlns="http://www.w3.org/2000/svg" xmlns:xlink="http://www.w3.org/1999/xlink" x="0px" y="0px"
	 viewBox="0 0 841.9 595.3" style="enable-background:new 0 0 841.9 595.3;" xml:space="preserve">
<style type="text/css">
	.st0{fill:url(#SVGID_1_);}
	.st1{fill:url(#SVGID_2_);}
	.st2{fill:url(#SVGID_3_);}
</style>
<g>
	<path d="M533.1,274.4h-20l-21.1,32.4c0,0,0.1,0-9-13.8c-9.1-13.8-20.3-18.6-37.2-18.6c-14.2,0-49.9,0-49.9,0v95.5h16.3v-39.9h34
		v-13.6h-34V288c0,0,23.3,0,33.6,0c10.3,0,16.2,3.4,23.1,13.8C475.6,312.2,482,322,482,322l-31.3,47.9h19.6l21.6-32.9l21.6,32.9
		h19.6L501.8,322L533.1,274.4z"/>
</g>
<g>
	<linearGradient id="SVGID_1_" gradientUnits="userSpaceOnUse" x1="337.478" y1="283.7131" x2="352.1401" y2="283.7131">
		<stop  offset="0" style="stop-color:#E6441F"/>
		<stop  offset="0.3567" style="stop-color:#E6401F"/>
		<stop  offset="0.6431" style="stop-color:#E53420"/>
		<stop  offset="0.9043" style="stop-color:#E31620"/>
		<stop  offset="1" style="stop-color:#E20020"/>
	</linearGradient>
	<path class="st0" d="M351.6,286.5c0.4-0.8,0.5-1.7,0.5-2.7c0-1-0.2-1.9-0.5-2.7c-0.4-0.9-0.9-1.6-1.5-2.2c-0.6-0.6-1.4-1.1-2.3-1.5
		c-0.9-0.4-1.8-0.6-2.9-0.6c-1,0-2,0.2-2.9,0.5c-0.9,0.4-1.7,0.9-2.4,1.5c-0.7,0.6-1.2,1.3-1.6,2.2c-0.4,0.8-0.6,1.7-0.6,2.8
		c0,0.9,0.2,1.8,0.6,2.6c0.4,0.8,0.9,1.6,1.6,2.2c0.7,0.6,1.4,1.2,2.3,1.5c1.8,0.8,4.2,0.7,5.9,0c0.9-0.4,1.6-0.8,2.3-1.4
		C350.7,288.1,351.2,287.3,351.6,286.5z"/>
	<linearGradient id="SVGID_2_" gradientUnits="userSpaceOnUse" x1="308.8364" y1="283.7131" x2="323.4965" y2="283.7131">
		<stop  offset="0" style="stop-color:#79B530"/>
		<stop  offset="0.2375" style="stop-color:#75B431"/>
		<stop  offset="0.4281" style="stop-color:#69B033"/>
		<stop  offset="0.6026" style="stop-color:#4FAA37"/>
		<stop  offset="0.7674" style="stop-color:#09A13A"/>
		<stop  offset="0.9239" style="stop-color:#00973E"/>
		<stop  offset="1" style="stop-color:#009140"/>
	</linearGradient>
	<path class="st1" d="M323,286.5c0.4-0.9,0.5-1.7,0.5-2.7c0-1-0.2-1.9-0.5-2.7c-0.4-0.9-0.9-1.6-1.5-2.2c-0.6-0.6-1.4-1.1-2.3-1.5
		c-0.9-0.4-1.8-0.6-2.9-0.6c-1,0-2,0.2-2.9,0.5c-0.9,0.4-1.7,0.9-2.4,1.5c-0.7,0.6-1.2,1.3-1.6,2.2c-0.4,0.8-0.6,1.7-0.6,2.8
		c0,0.9,0.2,1.8,0.6,2.6c0.4,0.8,0.9,1.6,1.6,2.2c0.7,0.6,1.4,1.2,2.3,1.5c1.8,0.8,4.2,0.7,5.9,0c0.9-0.4,1.6-0.8,2.3-1.4
		C322.1,288.1,322.6,287.3,323,286.5z"/>
	<linearGradient id="SVGID_3_" gradientUnits="userSpaceOnUse" x1="366.6567" y1="283.7116" x2="381.3227" y2="283.7116">
		<stop  offset="0" style="stop-color:#009EE0"/>
		<stop  offset="0.2675" style="stop-color:#009CDE"/>
		<stop  offset="0.4824" style="stop-color:#0098D8"/>
		<stop  offset="0.679" style="stop-color:#0091CE"/>
		<stop  offset="0.8635" style="stop-color:#0086BF"/>
		<stop  offset="1" style="stop-color:#007CB0"/>
	</linearGradient>
	<path class="st2" d="M380.8,286.5c0.4-0.9,0.5-1.7,0.5-2.7c0-1-0.2-1.9-0.5-2.7c-0.4-0.9-0.9-1.6-1.5-2.2c-0.6-0.6-1.4-1.1-2.3-1.5
		c-0.9-0.4-1.8-0.6-2.9-0.6c-1.1,0-2,0.2-2.9,0.5c-0.9,0.4-1.7,0.9-2.4,1.5c-0.7,0.6-1.2,1.3-1.6,2.2c-0.4,0.8-0.6,1.7-0.6,2.8
		c0,0.9,0.2,1.8,0.6,2.6c0.4,0.8,0.9,1.6,1.6,2.2c0.7,0.6,1.4,1.1,2.3,1.5c1.8,0.8,4.2,0.7,5.9,0c0.9-0.4,1.7-0.8,2.3-1.4
		C379.9,288,380.4,287.3,380.8,286.5z"/>
</g>
<g>
	<path d="M312.6,254.2L312.6,254.2l-0.1,2.7h-1.3v-22.2h1.3v10.3h0.1c0.5-1.1,1.3-2,2.3-2.6c1-0.6,2.1-0.9,3.3-0.9
		c1.9,0,3.4,0.7,4.5,2c1.1,1.3,1.6,3.1,1.6,5.4c0,2.5-0.6,4.5-1.9,6.1s-2.9,2.3-4.8,2.3C315.4,257.2,313.7,256.2,312.6,254.2z
		 M312.6,248.6v1.9c0,1.5,0.5,2.8,1.4,3.9s2.2,1.6,3.7,1.6c1.5,0,2.8-0.7,3.7-2s1.4-3,1.4-5.2c0-1.9-0.4-3.4-1.3-4.5
		s-2.1-1.7-3.5-1.7c-1.7,0-3.1,0.6-4.1,1.8S312.6,247,312.6,248.6z"/>
	<path d="M345.4,238.1c-0.3,0-0.6-0.1-0.8-0.3s-0.3-0.5-0.3-0.8c0-0.3,0.1-0.6,0.3-0.8s0.5-0.3,0.8-0.3c0.3,0,0.6,0.1,0.8,0.3
		s0.3,0.5,0.3,0.8c0,0.3-0.1,0.6-0.3,0.8S345.8,238.1,345.4,238.1z M344.8,256.8v-15h1.3v15H344.8z"/>
	<path d="M377.9,256.8v-8.7c0-3.6-1.3-5.4-3.9-5.4c-1.4,0-2.6,0.5-3.6,1.6c-0.9,1.1-1.4,2.4-1.4,3.9v8.6h-1.3v-15h1.3v2.7h0.1
		c1.1-2.1,2.8-3.1,5.1-3.1c1.6,0,2.9,0.5,3.7,1.6c0.9,1.1,1.3,2.6,1.3,4.6v9.1H377.9z"/>
	<path d="M411.1,256.8v-2.7h-0.1c-0.5,0.9-1.2,1.7-2.2,2.3s-2,0.8-3.2,0.8c-1.8,0-3.4-0.7-4.5-2c-1.2-1.3-1.8-3.2-1.8-5.6
		c0-2.4,0.6-4.4,1.9-5.9c1.3-1.5,2.9-2.2,5-2.2c2.2,0,3.8,0.9,4.8,2.8h0.1v-9.6h1.3v22.2H411.1z M411.1,247.7c0-1.4-0.4-2.6-1.3-3.6
		c-0.9-1-2.1-1.5-3.6-1.5c-1.6,0-2.9,0.6-3.9,1.8s-1.5,2.9-1.5,5c0,2.1,0.5,3.7,1.4,4.8c0.9,1.1,2.1,1.7,3.6,1.7c1.7,0,3-0.5,4-1.6
		s1.4-2.4,1.4-3.9V247.7z"/>
	<path d="M443,256.8v-3h-0.1c-0.5,1-1.2,1.8-2.1,2.5c-0.9,0.6-1.9,0.9-3,0.9c-1.4,0-2.6-0.4-3.4-1.2s-1.2-1.8-1.2-3
		c0-2.6,1.7-4.2,5.2-4.7l4.6-0.7c0-3.2-1.2-4.8-3.6-4.8c-1.7,0-3.3,0.7-4.8,2v-1.6c0.6-0.4,1.3-0.8,2.3-1.1c1-0.3,1.8-0.5,2.7-0.5
		c1.5,0,2.7,0.5,3.6,1.4s1.3,2.3,1.3,4.2v9.8H443z M438.8,249.4c-1.6,0.2-2.7,0.6-3.3,1.1s-1,1.3-1,2.5c0,0.9,0.3,1.6,0.9,2.2
		s1.4,0.9,2.5,0.9c1.4,0,2.6-0.5,3.6-1.6c1-1.1,1.4-2.4,1.4-4.1v-1.5L438.8,249.4z"/>
	<path d="M467,254.2L467,254.2l-0.1,2.7h-1.3v-22.2h1.3v10.3h0.1c0.5-1.1,1.3-2,2.3-2.6c1-0.6,2.1-0.9,3.3-0.9c1.9,0,3.4,0.7,4.5,2
		c1.1,1.3,1.6,3.1,1.6,5.4c0,2.5-0.6,4.5-1.9,6.1s-2.9,2.3-4.8,2.3C469.7,257.2,468.1,256.2,467,254.2z M466.9,248.6v1.9
		c0,1.5,0.5,2.8,1.4,3.9s2.2,1.6,3.7,1.6c1.5,0,2.8-0.7,3.7-2s1.4-3,1.4-5.2c0-1.9-0.4-3.4-1.3-4.5s-2.1-1.7-3.5-1.7
		c-1.7,0-3.1,0.6-4.1,1.8S466.9,247,466.9,248.6z"/>
	<path d="M499.1,256.8v-22.2h1.3v22.2H499.1z"/>
	<path d="M522.3,249.4c0,2.1,0.5,3.7,1.4,4.8c1,1.2,2.3,1.7,3.9,1.7c1.7,0,3.3-0.6,4.9-1.9v1.4c-1.6,1.1-3.3,1.7-5.2,1.7
		c-1.9,0-3.5-0.7-4.7-2.1s-1.8-3.3-1.8-5.9c0-2.2,0.6-4,1.9-5.5c1.2-1.5,2.9-2.2,4.9-2.2c1.9,0,3.3,0.7,4.3,2s1.5,3.1,1.5,5.4v0.6
		H522.3z M532,248.2c-0.1-1.7-0.5-3.1-1.2-4s-1.8-1.4-3.2-1.4c-1.4,0-2.6,0.5-3.5,1.4c-0.9,0.9-1.5,2.3-1.7,4.1H532z"/>
</g>
</svg>
